<?xml version="1.0" encoding="UTF-8"?>
<svg version="1.1" viewBox="0 0 100 100" xmlns="http://www.w3.org/2000/svg">
 <g fill="#3194fd">
  <path d="m34.898 29.699h21.199c1.3008 0 2.3008-1 2.3008-2.3008 0-1.3008-1-2.3008-2.3008-2.3008l-21.199 0.003906c-1.3008 0-2.3008 1-2.3008 2.3008 0.003906 1.1992 1.0039 2.2969 2.3008 2.2969z"/>
  <path d="m34.898 44.801h21.199c1.3008 0 2.3008-1 2.3008-2.3008s-1-2.3008-2.3008-2.3008h-21.199c-1.3008 0-2.3008 1-2.3008 2.3008 0.003906 1.3008 1.0039 2.3008 2.3008 2.3008z"/>
  <path d="m34.898 59.898h21.199c1.3008 0 2.3008-1 2.3008-2.3008 0-1.3008-1-2.3008-2.3008-2.3008l-21.199 0.003906c-1.3008 0-2.3008 1-2.3008 2.3008 0.003906 1.2969 1.0039 2.2969 2.3008 2.2969z"/>
  <path d="m34.898 75h21.199c1.3008 0 2.3008-1 2.3008-2.3008s-1-2.3008-2.3008-2.3008h-21.199c-1.3008 0-2.3008 1-2.3008 2.3008 0.003906 1.1992 1.0039 2.3008 2.3008 2.3008z"/>
  <path d="m24.102 29.699h1.8984c1.3008 0 2.3008-1 2.3008-2.3008 0-1.3008-1-2.3008-2.3008-2.3008h-1.8984c-1.3008 0-2.3008 1-2.3008 2.3008 0 1.2031 1 2.3008 2.3008 2.3008z"/>
  <path d="m24.102 44.801h1.8984c1.3008 0 2.3008-1 2.3008-2.3008s-1-2.3008-2.3008-2.3008h-1.8984c-1.3008 0-2.3008 1-2.3008 2.3008s1 2.3008 2.3008 2.3008z"/>
  <path d="m24.102 59.898h1.8984c1.3008 0 2.3008-1 2.3008-2.3008 0-1.3008-1-2.3008-2.3008-2.3008h-1.8984c-1.3008 0-2.3008 1-2.3008 2.3008 0 1.3008 1 2.3008 2.3008 2.3008z"/>
  <path d="m26 70.301h-1.8984c-1.3008 0-2.3008 1-2.3008 2.3008 0 1.3008 1 2.3008 2.3008 2.3008l1.8984-0.003906c1.3008 0 2.3008-1 2.3008-2.3008 0.097657-1.1992-1-2.2969-2.3008-2.2969z"/>
  <path d="m68 9.8984h-61.898c-2 0-3.6016 1.6016-3.6016 3.6016v72.898c0 2 1.6016 3.6016 3.6016 3.6016h61.898c2 0 3.6016-1.6016 3.6016-3.6016v-72.797c0.097657-2.1016-1.6016-3.7031-3.6016-3.7031zm-1 75.5h-53.699v-70.797h53.699z"/>
  <path d="m93.398 19.801h-8.3984c-2.3008 0-4.1016 1.8984-4.1016 4.1016v45.5c0 0.80078 0.19922 1.5 0.60156 2.1992l4.1992 6.6992c0.80078 1.1992 2 1.8008 3.5 1.8984 1.3984 0 2.6992-0.69922 3.5-1.8984l4.1992-6.6992c0.39844-0.69922 0.60156-1.3984 0.60156-2.1992v-45.504c0-2.2969-1.8984-4.0977-4.1016-4.0977zm-0.59766 4.5977v4.8984h-7.3984v-4.8984zm0 9.5v27.801h-7.3984l-0.003906-27.801zm-3.6992 41.203-3.6992-5.6992v-3h7.3984v2.8984z"/>
 </g>
</svg>
