<?xml version="1.0" encoding="UTF-8"?>
<svg version="1.1" viewBox="0 0 1200 1200" xmlns="http://www.w3.org/2000/svg">
 <path d="m600 60c-94.793 0-187.91 24.949-270 72.344-82.094 47.395-150.26 115.56-197.66 197.65-47.395 82.094-72.348 175.21-72.348 270 0 94.793 24.949 187.91 72.348 270 47.395 82.09 115.56 150.26 197.65 197.65 82.09 47.398 175.21 72.348 270 72.348 94.789 0 187.91-24.953 270-72.348 82.094-47.395 150.26-115.56 197.66-197.66 47.395-82.09 72.344-175.21 72.344-270 0-143.21-56.895-280.57-158.16-381.83-101.27-101.27-238.62-158.16-381.83-158.16zm0.019532 186.62c96.633 0 174.97 78.332 174.97 174.96 0 96.633-78.34 174.96-174.97 174.96-96.629 0-174.96-78.336-174.96-174.96 0-96.633 78.332-174.96 174.96-174.96zm-189.05 363.66c98.43 1.875 116.46 41.965 189.05 42 72.578 0 90.551-39.859 188.88-41.68 89.773-1.6602 149.72 145.64 159.59 261.9l-696.97 0.003906c9.7305-116.37 69.586-263.94 159.46-262.22z" fill="#3194fd"/>
</svg>
