<?xml version="1.0" encoding="UTF-8"?>
<svg width="1200pt" height="1200pt" version="1.1" viewBox="0 0 1200 1200" xmlns="http://www.w3.org/2000/svg">
 <path d="m492 608.53c5.5312 1.5 11.578 2.7656 18.375 3.8438l-46.594 99.984h-31.219c-9.375-34.219-28.219-64.781-54.656-88.688l8.625-15.234zm59.109-19.594-0.375 0.79688-69.75 149.63h-70.359l-0.09375-0.51562c-6.1875-43.5-30.609-82.875-67.078-108.09l-0.46875-0.32812 0.28125-0.46875 27.562-48.562h124.6l1.2656 0.32812c0.09375 0 0.23438 0.046875 0.32812 0.09375l0.1875 0.046875c8.625 2.3906 18.094 4.125 29.812 5.3906h0.046875c0.9375 0 1.875 0.09375 2.8125 0.23438 3.8438 0.375 7.7344 0.60938 12 0.84375h0.1875c1.2188 0.09375 2.4844 0.23438 3.75 0.23438 0.75 0.09375 1.4531 0.09375 2.1562 0.09375zm-31.875 18.703-4.0312-0.5625c-8.3906-1.2188-15.562-2.625-22.031-4.4062l-110.16-0.1875-12.75 22.5 1.8281 1.5938c27.047 23.859 46.172 54.844 55.219 89.531l0.5625 2.25h39.75zm-10.078-84.656c-1.4062-1.2188-3.375-1.6406-5.8125-1.4062-4.5 0.375-10.172 3.0469-15.656 5.625-3.6562 1.7344-7.125 3.375-10.031 4.2188-11.672 3.4688-100.41 9.75-115.22-2.625-15.281-12.75-28.594-10.781-29.062-10.688-0.79688 0-80.25 0.84375-99.469 0.14062-1.125-0.046875-2.2031-0.046875-3.2344-0.046875-17.016 0-22.312 5.2969-22.5 5.4844-13.359 10.828-19.641 19.594-18.703 26.109 0.60938 4.3125 4.3125 6.4219 6.4688 7.3125 1.0781 0.46875 1.9219 0.60938 1.9688 0.60938l53.766 18.938 235.22 0.046875 0.65625-0.79688c0.51562-0.60938 1.125-1.3594 1.6875-2.0625 2.4375-2.9062 7.2188-8.9062 12.188-16.594 7.4062-11.25 10.969-20.297 10.5-26.859-0.1875-3.5625-1.0781-5.9531-2.7656-7.4062zm99.844 67.359-17.25-0.28125c-11.812-0.1875-23.016-0.32812-33.844-0.84375h-1.3594l-69.656 149.26-0.375 0.84375h36.094l36.375-70.547h56.766v-78.469zm-481.92 101.16-5.3906 75.375 25.922 4.5469c4.7812 54 50.297 96.375 105.38 96.375 42.469 0 79.078-25.078 96-61.078l48.375 8.5312c-21.703 58.688-78.141 100.55-144.37 100.55-84.844 0-153.84-69.141-153.84-153.94 0-37.547 13.547-72 35.859-98.766 28.219-33.703 70.688-55.219 117.94-55.219 29.766 0 57.469 8.3906 81 23.062 2.3906 1.4531 4.6875 3 6.9375 4.5469 33.938 23.766 57.844 60.703 64.219 103.31 0.375 1.9219 0.60938 3.8438 0.70313 5.7656 0.70312 5.625 1.0781 11.391 1.0781 17.297 0 2.5312-0.14062 5.0625-0.23437 7.5469l-47.859-13.312c-3.1406-55.781-49.312-100.22-105.84-100.22-36.234 0-68.297 18.375-87.375 46.312zm189.37 109.45c-13.078 21.375-36.703 35.531-63.469 35.531-35.859 0-65.859-25.547-72.844-59.391l12.844 2.2969c7.5469 26.062 31.688 45.141 60 45.141 20.766 0 39.141-10.078 50.531-25.688zm9.6094-54-13.312-3.7031c-7.9219-25.453-31.688-43.922-59.766-43.922-15.703 0-30.375 6-41.297 15.703l-13.312-3.7031c13.547-14.766 33-24 54.609-24 35.953-0.046875 66.234 25.641 73.078 59.625zm788.86 14.859c0 84.844-69 153.94-153.94 153.94-84.844 0-153.84-69.141-153.84-153.94 0-53.297 27.234-100.31 68.531-128.06l23.062 42.609c-26.391 19.219-43.547 50.297-43.547 85.453 0 58.453 47.531 105.94 105.84 105.94 58.453 0 105.94-47.531 105.94-105.94 0-58.453-47.531-105.94-105.94-105.94-12.609 0-24.609 2.1562-35.859 6.375l-22.922-42.609c18.141-7.5469 38.062-11.766 58.781-11.766 84.891 0 153.89 69.094 153.89 153.94zm-79.312 0c0 41.156-33.469 74.625-74.625 74.625-41.062 0-74.531-33.469-74.531-74.625 0-23.156 10.688-43.922 27.234-57.609l5.8594 10.922c-12.938 11.391-21.141 28.078-21.141 46.688 0 34.547 28.078 62.625 62.531 62.625 34.547 0 62.625-28.078 62.625-62.625 0-34.453-28.078-62.531-62.625-62.531-5.0625 0-10.078 0.60938-14.766 1.9219l-5.8594-10.922c6.4688-1.9219 13.453-3 20.625-3 41.203 0 74.672 33.516 74.672 74.531zm-299.53-124.18-9.1406 22.453c-2.0625-0.375-3.9375-0.70312-5.7656-0.9375v9.8438h-16.547v45h-72.375v-45h-11.391v-78.375h0.60938c24.844 0.375 45.234 1.0781 64.078 2.8594 15.234 1.3125 26.156 1.2188 34.922 0.14062l0.70312-0.14062v41.391c4.4531 0.60938 9.5156 1.4062 14.906 2.7656zm-26.625 19.031c0-2.3438-1.7344-4.1719-3.8906-4.1719h-70.172c-2.0156 0-3.8906 1.8281-3.8906 4.1719 0 2.1562 1.875 4.1719 3.8906 4.1719h70.219c2.1562 0 3.8438-1.9688 3.8438-4.1719zm0-16.688c0-2.3438-1.7344-4.1719-3.8906-4.1719h-70.172c-2.0156 0-3.8906 1.8281-3.8906 4.1719 0 2.1562 1.875 4.1719 3.8906 4.1719h70.219c2.1562 0 3.8438-2.0156 3.8438-4.1719zm0-16.734c0-2.3438-1.7344-4.1719-3.8906-4.1719h-70.172c-2.0156 0-3.8906 1.8281-3.8906 4.1719 0 2.1562 1.875 4.1719 3.8906 4.1719h70.219c2.1562 0 3.8438-1.9688 3.8438-4.1719zm0-16.688c0-2.3438-1.7344-4.1719-3.8906-4.1719h-70.172c-2.0156 0-3.8906 1.8281-3.8906 4.1719 0 2.1562 1.875 4.1719 3.8906 4.1719h70.219c2.1562 0 3.8438-2.0156 3.8438-4.1719zm246.1 115.08c-1.6875 0-3.375 0.14062-4.9219 0.375l-10.312-19.078-5.7656-10.688-15.141-27.938-22.781-42.141-7.7812-14.391c0.70312-0.9375 1.2188-2.0625 1.5469-3.2344 1.0781-3.6094 0.70312-7.3125-1.0781-10.688l-30.469-56.766c-2.5312-4.6875-7.2188-7.3125-12.141-7.4531l-34.547-63.938-12.375-22.922c-0.60938-1.2188-14.156-30.141-55.453-43.688l-1.4531-0.60938-26.859 1.0781-6 0.14062-36.234 1.4531c-5.0625 0.14062-8.8594 4.3125-8.625 9.2344 0.14062 5.0625 4.7812 9.1406 9.2344 8.7656l65.859-2.5312c32.297 11.156 42.703 32.766 43.453 34.219l11.625 21.609-28.453 11.297 0.46875 0.60938c11.531 16.312 15.469 37.078 11.531 61.453l-83.859 207.61c-0.14062 0.23438-11.766 25.688-36.375 27.703-18.469 1.3125-123.71 0.84375-155.53 0.70312-18.938-0.14062-36.938-0.14062-53.062-0.23438l48.375 13.453h4.6875c21.375 0.14062 48 0.23438 71.625 0.23438 17.531 0 35.859-0.14062 56.297-0.23438 15.469-0.14062 24.234-0.375 28.547-0.84375 1.2188-0.14062 2.7656-0.23438 3.9375-0.46875 27.375-4.3125 41.062-29.766 43.547-34.781l86.297-213.37 0.9375-0.375 7.4531 18.469 28.219-11.297v0.14062l30.469 56.766c1.6875 3.375 4.6875 5.7656 8.2969 6.8438 1.3125 0.46875 2.7656 0.70312 4.0781 0.70312h0.375l7.4531 13.781 22.922 42.375 15 27.703 5.7656 10.688 10.219 18.844c-5.5312 5.5312-9 13.078-9 21.469 0 16.688 13.453 30.141 30 30.141 16.688 0 30.141-13.453 30.141-30.141 0-16.641-13.453-30.047-30.141-30.047zm-176.76-46.922c-3.1406-12.938-11.062-21.844-20.531-27.844l-9.375 23.062c3.1406 2.625 5.3906 6.1406 6.4688 10.453 6.4688 26.859-3.6094 54.844-74.766 118.78l-0.14062 0.14062c-1.5469 0.9375-19.453 11.297-88.781 8.7656l-71.297-2.1562-0.70312 23.859 71.156 2.2969c7.9219 0.375 15.141 0.46875 21.938 0.46875 60.141 0 78.469-10.312 84-15.703 70.641-63.422 92.016-100.64 82.031-142.13zm-650.02-122.76h-33.703c-5.4844 0-9.9375 4.4531-9.9375 9.9375v10.219c0 5.4844 4.4531 9.9375 9.9375 9.9375h18.469v13.5l1.0312-1.0781c6.8438-7.2656 14.859-13.922 23.766-19.828l0.28125-0.1875v-12.562c0-5.4844-4.4062-9.9375-9.8438-9.9375zm282.47 192 0.14062 0.60938c0.60938 6.2344 0.9375 11.859 0.9375 17.297 0 2.7656-0.14062 5.7656-0.375 9l17.625 4.9219h51.469v-31.781zm300.71-398.9c-1.9219-15.703-7.2188-26.625-15.844-32.625-3.2344-2.2969-6.6094-3.4688-9.4688-4.0781-3.1406-12.141-14.156-25.547-42.609-24v44.625h30s13.547 0.375 13.547-12.844v-1.2188c1.6875 0.46875 3.375 1.3125 5.1562 2.5312 7.0781 4.7812 11.625 14.391 13.219 28.312 2.5312 21.703 3.6094 37.781 3.9375 48.141l6-0.23438c-0.32812-10.453-1.4062-26.625-3.9375-48.609zm60.75 208.31c-0.09375 0.84375-0.23438 1.6875-0.46875 2.5781-0.046875 0.23438-5.7656 27.562-51.516 32.812-4.9688 0.5625-10.266 0.84375-15.844 0.84375-5.9531 0-12.234-0.32812-18.844-0.9375-20.297-1.9219-42.984-2.5312-64.5-2.9062-4.1719-0.09375-8.4375-0.23438-12.562-0.23438l-8.9062-0.09375c-14.766-0.1875-28.688-0.375-42.141-0.98438-3.2344-0.09375-6.375-0.23438-9.5156-0.46875-6.2812-0.23438-12.141-0.70312-18.141-1.2188-13.453-1.3125-23.625-3.0938-32.156-5.5312l-0.375-0.09375-0.046875-0.42188c-0.09375-1.0781-0.46875-2.2969-1.0781-3.4219l-0.42188-0.42188 0.28125-0.42188c3.2344-4.2656 7.4062-9.9375 11.016-15.797 6.5625-10.828 9.6562-19.781 9.2812-26.672-0.60938-10.781-7.4062-12.75-10.266-13.125l-0.89062-0.09375 0.42188-0.75c12.094-22.031 45.234-59.25 131.53-61.031h4.3125c0.98438-4.875 5.3906-8.5312 10.453-8.5312h30.469c5.1562 0 9.6094 3.6094 10.594 8.5312h11.719c0.42188 0.046875 37.406 3.5625 57.609 30.844 12.656 17.203 16.031 39.938 9.9844 67.547zm-27.562-40.547c-1.8281-5.2031-4.2656-9.9844-6.9844-14.531-5.6719-8.9531-12-17.297-19.359-24.703 5.5312 8.7656 10.969 17.625 15 26.953 4.0312 8.9531 7.7344 19.594 5.1094 27.188-2.625 7.125-12.891 8.4375-22.734 7.6875l-31.031-0.89062c-41.391-0.70312-82.781-0.60938-124.26 2.5781 41.297 4.8281 82.734 6.5625 124.13 7.5469l31.078 0.32812c5.1562-0.046875 11.016-0.14062 16.688-1.9688 5.625-1.5938 12-6.2344 13.594-12.844 1.875-6.2812 0.46875-12.141-1.2188-17.344zm135.1-76.969v86.016c0 0.32812-0.28125 0.60938-0.60937 0.60938h-28.922c-0.23437 0-0.42187-0.09375-0.51562-0.28125 0 0-27.703-53.156-27.703-53.297l26.203-33.422c0.09375-0.09375 0.28125-0.1875 0.42187-0.1875h30.516c0.32812-0.046875 0.60937 0.23438 0.60937 0.5625zm-25.875 11.016c0-0.84375-0.65625-1.5-1.5-1.5s-1.5 0.65625-1.5 1.5v60.984c0 0.84375 0.65625 1.5 1.5 1.5s1.5-0.65625 1.5-1.5zm-489.05 134.63-0.60938 0.9375-27.375 44.297-0.60937-0.375c-25.078-15.609-54.141-23.859-83.766-23.859-49.078 0-94.688 22.219-125.16 60.938l-0.23438 0.23438h-39.844v-0.60938c0-0.23438 0.60938-19.312 13.312-41.766 3.2344-5.7656 7.4531-12 13.078-18.375 6.1406-7.2188 14.062-14.531 23.859-21.375 12.938-9.1406 29.391-17.391 50.391-23.531l0.23438-0.14062 0.23438 0.23438c2.3906 2.2969 5.3906 3.6094 7.3125 3.9375l54.703 19.312zm-171.89-0.23438c-0.09375-1.6406-1.4531-2.9062-3.1875-2.8125-71.062 4.9219-86.625 72-86.812 72.703-0.375 1.5938 0.65625 3.2344 2.2969 3.5625 0.23438 0.046875 0.42188 0.09375 0.65625 0.09375 1.4062 0 2.625-0.9375 2.9062-2.3438 0.14062-0.65625 14.719-63.375 81.375-68.016 1.6406-0.09375 2.9062-1.5469 2.7656-3.1875zm321.66 223.92v0.46875l-0.75 24.562-0.65625-0.14062-386.21-67.781 0.046875-0.5625 4.5938-63.281zm-32.531 7.2188c0.1875-0.84375-0.375-1.5938-1.1719-1.7812l-332.68-68.109c-0.9375-0.1875-1.5938 0.375-1.7812 1.1719-0.1875 0.84375 0.375 1.5938 1.1719 1.7812l332.72 68.109c0.09375 0 0.1875 0.046875 0.28125 0.046875 0.70312-0.046875 1.3125-0.51562 1.4531-1.2188zm340.97-418.5-23.812 34.406 19.312 33.938 36.891-45.938zm-12.094 36.141c-0.28125 0.42188-0.75 0.65625-1.2188 0.65625-0.28125 0-0.60938-0.09375-0.84375-0.28125-0.65625-0.46875-0.84375-1.4062-0.375-2.1094l16.312-23.25c0.46875-0.70312 1.4062-0.84375 2.1094-0.375 0.65625 0.46875 0.84375 1.4062 0.375 2.1094zm-228.24 275.21c-14.625 0-26.578 11.906-26.578 26.531s11.906 26.578 26.578 26.578c14.625 0 26.531-11.906 26.531-26.578 0-14.578-11.906-26.531-26.531-26.531zm44.062 14.109v-45.75h-65.156l-36.469 70.547h-39.562v31.5h0.60938c11.625 0.046874 27.562 0.42187 42.938 0.75 17.203 0.375 34.969 0.75 47.156 0.75 44.344 0 73.406-0.32813 81.891-0.9375 20.719-1.6406 31.359-22.641 32.391-24.984h0.046875l12.609-31.078 0.32812-0.84375zm-44.062 45.047c-17.953 0-32.578-14.625-32.578-32.578 0-17.953 14.625-32.531 32.578-32.531s32.531 14.625 32.531 32.531c0 17.953-14.578 32.578-32.531 32.578z"/>
</svg>
