<?xml version="1.0" encoding="UTF-8"?>
<svg width="1200pt" height="1200pt" version="1.1" viewBox="0 0 1200 1200" xmlns="http://www.w3.org/2000/svg">
 <path d="m765.42 367.82c-3.3281-2.4375-8.1094-4.875-12.375-4.875-10.828 3.0938-21.609 7.7344-32.109 11.953-21.609 8.7188-43.078 18.047-62.719 30.703v-0.046875c-5.1562 3.0938-10.125 6.4688-14.859 10.125l31.453-9.0469c37.406-8.2031 74.344-11.531 112.31-4.6406-2.0156-14.062-10.406-25.875-21.703-34.172z" fill="#fff"/>
 <path d="m807.79 326.21c2.1094 6.6094 1.4062 15.188 2.0156 22.172v0.046875c0.51562 8.625 2.3438 17.156 5.4375 25.266 3.5625 8.6719 9.5156 17.203 14.156 25.359 1.6406 2.8594 5.5312 11.859 8.1094 13.359l0.5625 0.28125 1.6875-0.65625 19.406-10.125-15.141-26.25c-2.5781-4.6406-5.8594-9.6094-7.3125-14.719-2.3438-8.2969-2.625-17.766-3.0938-26.391-1.5469-32.438-18.422-36.703-44.812-47.109-1.6406-0.9375-3-2.1562-4.0781-3.6562-3.75-4.0781-7.2656-4.6406-12.516-5.1562-5.4375 1.1719-9.6094 3.0938-12.797 7.7344v-0.046875c-2.4375 3.7031-3.2812 8.25-2.3438 12.609 0.98438 4.6406 3.7969 8.7188 7.8281 11.25 3.4219 2.2031 7.5938 2.9531 11.578 2.0156 1.6406-0.46875 4.7344-2.5312 6.0938-2.4844h-0.046875c1.5469 0.5625 3 1.2188 4.3594 2.0625l14.203 6.6094c3.3281 1.4531 5.7656 4.3594 6.7031 7.8281z" fill="#fff"/>
 <path d="m930.28 531.94c-1.4062-2.6719-3-6.9375-5.1094-9l-1.9219 0.46875-24.234 13.172 91.875 170.9c-7.5938 9.4688-11.953 19.5-10.594 31.922 1.1719 10.828 6.75 20.719 15.469 27.375 7.5469 5.5781 16.875 8.25 26.25 7.5 11.625-1.9219 20.859-6.5625 27.797-16.453 6.0938-8.625 8.4844-19.312 6.6094-29.719-2.1094-10.594-8.2969-19.922-17.297-25.922-3.3281-2.3438-7.0312-4.0312-10.969-5.0156-2.1562-0.51562-8.8125-0.51562-10.078-1.4062-1.2656-0.84375-9.1406-16.875-10.406-19.172l-64.875-121.18z" fill="#fff"/>
 <path d="m137.06 669.42c17.531-12.375 39.234-17.344 60.469-13.922 22.125 3.8438 42.094 15.328 55.078 33.984l6.0469 9.2812 21.375-4.6406c-11.109-24.891-31.688-44.344-57.141-54.047-12.516-4.7344-28.078-7.9219-41.531-6.9844-29.953 1.6875-54.938 13.125-75 35.672-17.812 19.969-26.156 46.969-24.469 73.547 1.4531 26.531 13.547 51.375 33.516 68.906 21.094 18.469 47.438 28.219 75.703 26.25 27.656-1.875 52.922-15.469 71.062-36.328 13.219-15.234 20.531-32.953 23.391-52.828l-22.641 4.125c-5.1562 18.891-14.062 34.594-29.719 46.781-18.516 13.453-39.422 19.688-62.297 16.031v0.046875c-21.375-3.5625-40.453-15.469-53.062-33.141-12.656-17.297-17.719-39.047-14.016-60.234 3.7969-21.141 15.703-40.031 33.234-52.5z" fill="#fff"/>
 <path d="m965.53 674.9c0.1875-0.14062 0.51562-0.23438 0.51562-0.46875 0.09375-0.79688-3.9375-7.4062-4.5469-8.5312h0.046875c-1.7812-3.5625-3.8906-6.9375-6.1875-10.172-6.7969 5.4375-12.938 11.719-18.281 18.656-16.547 22.969-24.141 49.078-19.5 77.438 4.2656 26.625 18.938 50.438 40.781 66.188 21.984 15.797 50.016 23.062 76.875 18.516 26.766-4.6406 50.672-19.594 66.516-41.672 16.078-22.828 20.953-50.625 16.219-77.859-4.6406-26.156-21.141-50.109-42.797-65.203-18.75-12.703-41.156-18.844-63.75-17.438-5.4844 0.46875-10.922 1.3594-16.219 2.7188 1.2188 2.5312 8.4375 18.938 10.266 19.594 1.4531 0.51562 4.9688-0.28125 6.6094-0.42188 3.75-0.32812 7.4531-0.32812 11.203-0.09375 25.688 1.7812 51.141 17.625 64.125 39.891 11.203 18.984 14.156 41.719 8.1562 62.953-5.2031 19.266-19.547 36.75-36.797 46.641h-0.046875c-18.234 10.594-40.031 13.406-60.375 7.7812-21.375-5.8125-39.562-19.875-50.578-39.094-10.125-18.375-12.609-40.031-6.9375-60.234 4.3594-15.141 12.938-28.734 24.703-39.188z" fill="#fff"/>
 <path d="m521.48 487.92c-2.625-0.75-5.3906-0.89062-8.1094-0.42188-3.5156 0.79688-7.3125 3.2344-10.547 4.7812h-0.046875c-4.2188 1.9219-8.5781 3.5625-13.031 4.9219-28.969 9.1875-65.391 11.531-94.969 4.2188-14.203-3.6562-27.562-9.8438-39.469-18.328-8.25-6-16.031-12.562-23.297-19.734-5.9531-5.6719-12.844-13.969-20.062-17.953h-0.046875c-1.8281-0.65625-3.75-0.89062-5.7188-0.75-4.2656 1.4531-8.9531 2.9531-12.141 6.2812-1.1719 2.9531-0.375 5.6719 0.23438 8.6719 1.6875 8.2969 4.2188 16.406 7.5469 24.188 13.359 30.469 37.875 60 69.516 72.281 7.5938 3 15.609 4.5938 23.719 4.8281 7.4531 0.09375 15.328-1.4062 22.641-2.6719 29.438-5.1562 56.25-14.859 83.438-27.094l3.0938-1.4062 11.531-5.7188c1.7344-0.70312 3.3281-1.6406 4.7812-2.8125 0.75-1.3125 1.3125-2.7188 1.7344-4.1719 1.9688-4.8281 4.125-9.6562 5.7656-14.578v-0.046875c1.2656-2.9531 1.2188-6.3281-0.14062-9.2344-1.3125-2.5781-3.6562-4.4531-6.4219-5.25z" fill="#fff"/>
 <path d="m967.45 496.4c2.3438-2.625 4.5469-5.3438 6.6094-8.2031 11.531-14.812 16.359-27.797 15.562-46.5-0.75-18.047-9.75-32.438-22.781-44.297-19.781-17.906-42.797-30.141-66.844-41.297v-0.046875c3.75-16.641 1.2188-34.078-7.125-48.938l-1.2188-0.375-0.046875-0.046875c0 3-0.5625 5.9062-1.6875 8.6719-3.9844 8.25-11.578 15.141-17.859 21.75l-22.594 24.141c-0.23438 0.28125-2.8594 3.0938-2.8594 3.0938 0.60938 1.4062 1.3125 2.7188 2.1562 3.9844l9.375 16.5 46.641 83.25c5.3438 9.7031 11.297 19.219 16.172 29.156l26.109 0.14062c3.75 0 18.422 1.0312 20.391-0.98438zm-0.5625-85.969c1.2188-0.46875 2.5312-0.46875 3.75 0 7.6406 5.7656 11.109 17.391 12.469 26.484 2.1562 14.625-0.70312 29.625-9.5156 41.578v0.046875c-1.0312 0.75-2.1094 1.4531-3.2344 1.9688-0.60938-0.046875-1.1719-0.28125-1.6875-0.60938-6.6094-5.1094-8.625-19.5-9.4219-27.375-1.2656-12.375-0.42188-32.25 7.6406-42.094z" fill="#fff"/>
 <path d="m1109 579.79c-22.734-12.984-47.859-21.141-73.875-23.953-10.406-1.3125-20.906-1.5-31.359-0.60938-16.125 1.125-32.016 4.125-47.438 9l30.188 58.172c32.109-7.9688 64.125-4.6406 92.672 12.656 25.688 15.469 46.125 42.469 53.25 71.672 7.4531 30.656 3.9844 63.188-12.656 90.281-16.266 27.047-42.703 46.5-73.359 53.906-30.703 7.4531-63.094 2.2969-89.953-14.344-26.484-16.5-46.359-42.891-53.438-73.453-6.9375-30.094-2.4844-62.203 14.109-88.453 8.4844-13.406 18.328-23.25 30.141-33.703l-27.797-52.312c-22.781 15.984-43.078 34.266-57.609 58.312-24.375 42.375-33.656 90.234-20.859 138 12.516 46.594 41.859 87.047 84 111.23 40.172 23.062 91.734 31.172 136.64 18.938 48-13.125 89.344-42.703 114.14-86.344l0.046875-0.046875c24.562-42.797 30.75-93.75 17.109-141.24-12.234-43.828-44.25-85.219-83.953-107.72z" fill="#fff"/>
 <path d="m848.06 542.39 11.25-21.609c0.70312-1.3594 2.0625-4.9219 3.0938-5.8594 1.3125-1.2656 6.1875-2.5781 8.0156-3.2344 4.125-1.4531 8.4375-2.1094 12.797-2.0156l6.8906 11.766c-1.4531 2.1562-2.8125 3.3281-3.0938 6.0469v0.046875c0.60938 1.4531 1.6406 2.6719 3 3.5156 2.8125-0.14062 34.641-16.641 37.172-19.219 0.51562-1.6875 0.60938-1.8281-0.32812-3.375h0.046875c-0.60938-0.84375-1.4062-1.5938-2.3438-2.0625-1.9688-0.14062-3.9375 0.32812-5.625 1.3594-2.5312-3.375-4.7812-6.9844-6.7031-10.734l-12.141-21.75-13.641-23.719-23.016-41.719c-2.9531 0.46875-6.1875 2.4844-8.9531 3.75l-20.859 10.219c-3.6094 2.1094-7.3594 3.9375-11.25 5.4375-4.3125-5.4375-9.7031-9.9375-15.797-13.266-11.859-6.1875-29.016-8.3438-42.188-9.5156-10.828-0.98438-22.125-1.7812-32.953-0.75-60.328 4.7812-116.06 22.031-163.18 61.219-9.6094 7.8281-18.609 16.406-26.812 25.688-2.2969 2.6719-7.4531 8.1094-8.3906 11.344-1.0312 3.4688 0.75 26.391-0.23438 27.516h-0.046875c-1.0781 0.70312-2.25 1.3125-3.4688 1.7812l-10.359 5.25v0.046875c-27.281 14.062-56.25 24.562-86.25 31.219-10.031 2.3438-20.203 4.0781-30.422 5.1094-28.875 2.25-52.5-10.125-73.688-28.594-21.703-19.359-37.641-44.344-45.891-72.234-1.9219-6.75-2.625-13.5-4.125-20.297-4.3125 0.60938-8.4375 1.5469-12.797 1.0312-5.625-0.84375-11.203-1.9688-16.734-3.375l-33-7.2188-127.03-26.484-29.344-6.0938c-3.2812-0.65625-7.9219-2.0625-11.203-1.9219-2.0625 0.14062-2.5312 0.98438-3.7031 2.5312 0.32812 8.3438 13.125 30.75 19.312 36.469 5.3438 4.9688 13.5 7.4062 20.25 9.8438 2.5312 0.89062 5.8594 1.5469 7.875 3.375-0.9375 1.2188-2.3438 1.9219-3.8438 1.9219-13.688 1.0312-28.172 0-41.953 0-4.2188 0-10.688-0.79688-14.531 0.65625-3.0938 3.4688-1.9688 12.656-1.7344 17.156v0.046875c0.046875 0.98438 0.32812 1.9219 0.75 2.8125 3.375 2.2031 8.6719 1.5469 12.703 1.5469 9.1406 0 19.031-0.65625 28.078 0.28125v-0.046875c-2.9062 7.3594-6.1406 14.578-9.7969 21.562-2.5781 5.1562-9.6562 15.469-8.5781 21.094h0.046875c1.0781 1.1719 2.5312 1.875 4.125 2.0156 6.1875-2.0625 18.938-21.281 23.719-27.328 1.4062-1.7812 3.6562-5.2031 5.4375-6.375 1.3594-0.89062 4.6406-1.3125 6.1875-1.6406l17.062-3.0938c3.7031-0.5625 8.5312-0.375 10.359-4.3125l0.046875-0.046875c0.1875-0.65625 0.375-1.3125 0.46875-2.0156 0.1875-1.4062 0.89062-2.6719 2.0625-3.4688 2.2031-1.3125 4.8281-1.5938 7.3125-0.89062 4.0312 1.0312 7.9688 3.4219 11.625 5.2969l20.438 10.688 85.266 45c9.4688 4.8281 20.062 11.719 30.188 14.672h0.046875c3.2812 0.79688 6.75 0.79688 10.031 0 1.1719-0.32812 2.3906-0.5625 3.6562-0.65625 1.5469 0.375 129.47 103.27 141.52 114.05l-213.52 44.156c-7.5-10.031-16.219-16.641-28.922-18.516l-0.046875-0.046875c-10.547-1.5-21.328 1.2188-29.906 7.5469-17.578 13.266-21.281 38.156-8.3438 55.969 6.6562 8.6719 16.734 15.094 27.656 16.312 11.25 1.3125 22.547-2.0156 31.312-9.2344 4.6875-3.9375 8.4844-8.8125 11.156-14.297 0.5625-1.4062 1.1719-2.8125 1.9688-4.125 0.5625-0.5625 6.375-1.2188 7.7344-1.5469l29.344-5.8125 183-36.984v0.046875c4.0312 27.469 17.906 52.547 39 70.594-5.25 0-12 0.5625-16.969-0.60938-9.9844-2.2969-20.766-7.9688-30.234-11.953l-47.578-20.016-16.734-7.3125c-1.5469-0.65625-4.6406-2.25-6.1875-2.2969-3.0938-0.09375-8.1562 2.0156-11.344 2.625l-39 7.5469c-4.4062 0.89062-9.75 1.2656-13.922 2.8594-3.8906 33-19.078 62.203-45.422 82.922v-0.046875c-34.266 26.484-80.344 31.828-119.77 13.922-29.344-14.016-52.359-37.312-63.328-68.344-10.031-28.828-8.3906-60.422 4.5-88.031 13.547-28.219 37.688-50.953 67.406-61.266 30.469-10.641 63.938-8.6719 92.953 5.3906 19.078 9.2812 37.547 24.984 48.891 42.984v0.046875c2.4375 3.8438 4.6406 7.875 6.6094 12 0.32812 0.60938 2.4844 5.4844 2.7656 5.625 0.5625 0.28125 57-11.578 63.562-12.844-16.125-47.203-50.156-84.469-94.875-106.45-42.891-21.188-94.5-23.531-139.55-8.1094-47.578 16.359-85.781 50.953-107.81 96.141-21.281 43.734-22.312 94.781-6.4688 140.34 15.281 44.016 50.766 81.984 92.484 102.09 44.156 21.281 93.703 25.781 140.44 9.4219l-0.046875-0.046876c46.219-16.078 84.047-50.016 105.05-94.219 8.9531-18.844 13.922-38.719 16.547-59.344l64.875 27.938c11.953 5.0625 23.953 11.297 36.797 13.922 15.938 3.2812 33.562 1.875 49.781 1.9219h79.734l80.578 0.14063c13.125 0 26.672 0.89062 39.703 0 8.4375-0.75 16.688-2.8125 24.469-6.1875 18.891-7.7344 35.109-24.609 42.844-43.406h0.046875c8.9062-22.172 8.6719-46.969-0.70312-68.953l-4.5469-9.9844 31.969-60.516zm-242.34 49.453 21.141-5.25 1.0781 0.375-1.2656 29.531-19.266-13.688-14.859-7.5469c4.3125-1.4531 8.6719-2.625 13.125-3.4688zm10.359 147.28c-13.078 18.141-33.281 28.875-55.078 32.438-20.906 2.2969-42.656-2.5781-59.625-15.375l0.046875-0.046876c-17.578-13.453-29.156-33.328-32.203-55.266-2.7188-21.141 3-42.469 15.844-59.438 14.203-18.516 33.234-29.203 56.344-32.344 19.078-1.5469 39.375 2.5781 55.078 13.922 17.578 12.656 30.469 31.547 33.984 53.109v-0.046876c3.8906 22.078-1.3125 44.812-14.438 63zm112.45-146.48v-0.046874c-4.2656-2.4844-8.2969-5.3438-12.141-8.4844l-8.4375 11.812 13.547 10.547c-0.84375 1.6875-2.0625 3.1875-3.6094 4.2656l-13.5-9.2812-16.219 23.344v-0.046874c2.8594 2.8125 5.4844 5.8594 7.9219 9.0469l1.3594 2.3438-0.5625 0.60938-44.812-4.6406c0.09375-16.969 0.32812-34.453-2.8594-51.188l83.625-21.469 0.89062 0.75-14.109 19.594 12.047 8.1562c-0.046875 1.3594-2.2969 3.5156-3.1875 4.6406zm11.906-15.375c-3.2812-0.28125-8.5781-4.9688-11.109-7.125-0.09375-2.2969 0.32812-2.3906 1.8281-4.1719 0.375-0.09375 0.79688-0.09375 1.1719 0 2.4844 0.42187 8.9531 5.7656 10.406 7.9219zm23.484 72.328-17.812-3.9375 9.5625-13.078c-2.9531-1.875-11.203-6.1875-12.234-9.2812l1.9688-2.9531c4.2656 0.09375 8.5781 5.8125 12.984 6.9844l1.6406-1.8281 6.1875-9.5156c-3.1875-1.7344-10.078-5.0625-11.859-8.2031 0.9375-1.4531 1.7344-3.0938 3.375-3.7031 4.0312 2.0625 7.8281 4.5 11.344 7.3594 2.625-3.5156 4.9219-7.2188 6.9844-11.062l-11.625-9.2812c0.51562-1.4531 1.4062-2.7656 2.5312-3.8438 2.7188 0 10.219 6.0938 12.891 7.875l19.828-29.812-15.844-11.719c-1.9688-1.4531-4.7812-3-6.1875-4.9219l42.844-10.078 2.3438-0.46875 0.65625 0.79687z" fill="#fff"/>
 <path d="m579.89 642.66c-10.969-7.0312-24.047-9.9844-36.938-8.3906-15.375 2.3906-29.156 10.828-38.25 23.438-8.8125 12.562-12.234 28.172-9.375 43.266 5.7188 29.25 33.422 48.938 62.953 44.625 15-2.8125 28.219-10.312 36.984-23.062 8.2969-12.094 12.234-27.797 9.5156-42.422l-0.046875 0.046875c-2.8594-15.375-11.812-28.875-24.844-37.5z" fill="#fff"/>
</svg>
