<?xml version="1.0" encoding="UTF-8"?>
<svg version="1.1" viewBox="0 0 100 100" xmlns="http://www.w3.org/2000/svg">
 <g fill="#3194fd">
  <path d="m91.301 9.8008h-82.602c-3.3984 0-6.1992 2.8008-6.1992 6.1992v67.898c0 3.3984 2.8008 6.1992 6.1992 6.1992h82.602c3.3984 0 6.1992-2.8008 6.1992-6.1992v-67.797c0-3.5-2.8008-6.3008-6.1992-6.3008zm-59.199 6.3984c1.6992 0 3 1.3984 3 3 0 1.6992-1.3984 3-3 3-1.6992 0-3-1.3984-3-3 0-1.5977 1.3984-3 3-3zm-9.3008 0c1.6992 0 3 1.3984 3 3 0 1.6992-1.3984 3-3 3-1.6016 0-3-1.3984-3-3-0.10156-1.5977 1.3008-3 3-3zm-9.4023 0c1.6992 0 3 1.3984 3 3 0 1.6992-1.3984 3-3 3-1.6992 0-3-1.3984-3-3-0.097657-1.5977 1.3008-3 3-3zm76.402 66.301h-79.602v-53.602h79.602z"/>
  <path d="m72.699 43c-1.5-0.60156-3-0.89844-4.6992-0.89844-6.8008 0-12.398 5.1016-13.199 11.602h12.199z"/>
  <path d="m68 68.801c7.3984 0 13.398-6 13.398-13.398 0-4.5-2.1992-8.3984-5.5-10.801l-6.3008 11.699c-0.30078 0.60156-0.89844 0.89844-1.6016 0.89844h-13.195c0.80078 6.6016 6.3984 11.602 13.199 11.602z"/>
  <path d="m19.801 67.102h4.6992c0.60156 0 1.1992-0.5 1.1992-1.1992v-9c0-0.60156-0.5-1.1992-1.1992-1.1992h-4.6992c-0.60156 0-1.1992 0.5-1.1992 1.1992v9c0 0.69922 0.5 1.1992 1.1992 1.1992z"/>
  <path d="m30.301 67.102h4.6992c0.60156 0 1.1992-0.5 1.1992-1.1992v-14.902c0-0.60156-0.5-1.1992-1.1992-1.1992h-4.6992c-0.60156 0-1.1992 0.5-1.1992 1.1992v15c0.097657 0.60156 0.59766 1.1016 1.1992 1.1016z"/>
  <path d="m40.898 67.102h4.6992c0.60156 0 1.1992-0.5 1.1992-1.1992l0.003906-20.902c0-0.60156-0.5-1.1992-1.1992-1.1992h-4.6992c-0.60156 0-1.1992 0.5-1.1992 1.1992v20.898c-0.003906 0.70312 0.49609 1.2031 1.1953 1.2031z"/>
 </g>
</svg>
