<?xml version="1.0" encoding="UTF-8"?>
<svg version="1.1" viewBox="0 0 100 100" xmlns="http://www.w3.org/2000/svg">
 <g fill="#3194fd">
  <path d="m91.461 40.875-39.789-30.379c-1.8789-1.4336-3.5781 0.054687-3.5781 0.054687l-39.816 30.395s-1.5508 1.2188-0.32812 2.8203l4.3906 5.7617s1.1719 1.6914 2.5703 0.44531l3.2461-2.4805 29.508-23.203s1.6992-1.4883 3.5781-0.054687l30.441 23.258 3.1562 2.4102s1.418 1.2422 2.5859-0.28906l4.4844-5.8711c0.003906-0.003907 1.6289-1.4766-0.44922-2.8672z"/>
  <path d="m48.902 29.113-30.664 24.051v33.539s-0.19531 3.6094 3.2266 3.4219l18.273 0.007812h0.085938l0.007812-27.359c0-1.5273 1.2422-2.7734 2.7734-2.7734h14.957c1.5273 0 2.7695 1.2422 2.7695 2.7734l-0.027343 27.359 18.352-0.007812s3.1094 0.21484 3.1094-2.9922l-0.003906-33.93-31.504-24.07c-0.62109-0.47266-1.3477-0.023437-1.3555-0.019531z"/>
 </g>
</svg>
