<?xml version="1.0" encoding="UTF-8"?>
<svg version="1.1" viewBox="0 0 100 100" xmlns="http://www.w3.org/2000/svg">
 <g fill="#3194fd">
  <path d="m4.7109 27.629 54.59-0.058594c1.6211 5.3906 6.582 9.0781 12.211 9.0781 5.625 0 10.586-3.6875 12.207-9.0781l11.551 0.050782c2.0352 0 3.6836-1.6523 3.6836-3.6875s-1.6484-3.6836-3.6836-3.6836l-11.559-0.050781c-1.5664-5.4492-6.5547-9.207-12.227-9.207s-10.656 3.7578-12.223 9.207l-54.59 0.058593v0.003907c-2.0352 0-3.6875 1.6484-3.6875 3.6836 0 2.0352 1.6523 3.6836 3.6875 3.6836zm66.809-9.2617v0.003906c3.0312 0.015625 5.4805 2.4766 5.4805 5.5078 0 3.0156-2.4414 5.457-5.4531 5.457-3.0156 0-5.457-2.4414-5.457-5.457 0-3.0117 2.418-5.4648 5.4297-5.5078z"/>
  <path d="m95.289 71.711-23.391-0.0625c-1.5664-5.4492-6.5508-9.2031-12.223-9.2031s-10.66 3.7539-12.227 9.2031l-42.738 0.058593v0.003907c-2.0352 0-3.6875 1.6484-3.6875 3.6836 0 2.0352 1.6523 3.6836 3.6875 3.6836l42.75-0.078125c1.6211 5.3906 6.582 9.0781 12.211 9.0781 5.625 0 10.586-3.6875 12.207-9.0781l23.398 0.058594h0.003906c2.0352 0 3.6836-1.6484 3.6836-3.6836s-1.6484-3.6836-3.6836-3.6836zm-35.621 9h0.003906c-1.4414 0.011718-2.8242-0.55078-3.8477-1.5625-1.0234-1.0117-1.6016-2.3906-1.6055-3.8281 0-3.0117 2.4453-5.457 5.457-5.457s5.4531 2.4453 5.4531 5.457c0.003906 1.4414-0.57031 2.8242-1.5938 3.8438-1.0234 1.0156-2.4141 1.5781-3.8555 1.5664z"/>
  <path d="m95.289 44-47.66 0.058594c-1.6211-5.3867-6.582-9.0781-12.207-9.0781-5.6289 0-10.59 3.6914-12.211 9.0781l-18.48-0.058594c-2.0312 0-3.6797 1.6484-3.6797 3.6797s1.6484 3.6797 3.6797 3.6797l18.48 0.050781c1.5664 5.4492 6.5508 9.207 12.223 9.207s10.66-3.7578 12.227-9.207l47.66-0.058594c2.0352 0 3.6836-1.6523 3.6836-3.6875 0-2.0352-1.6484-3.6836-3.6836-3.6836zm-59.879 9.2891c-3.0078-0.054687-5.418-2.5117-5.4102-5.5195 0-3.0117 2.4414-5.4531 5.4531-5.4531 3.0156 0 5.457 2.4414 5.457 5.4531 0.003906 1.4609-0.57422 2.8633-1.6055 3.8984-1.0312 1.0352-2.4336 1.6211-3.8945 1.6211z"/>
 </g>
</svg>
